HIERARCHY
ROOT Hips
{
	OFFSET -339.306915 540.749023 89.171944
	CHANNELS 6 Xposition Yposition Zposition Zrotation Yrotation Xrotation
	JOINT Spine
	{
		OFFSET 0.000000 2.080078 8.814247
		CHANNELS 6 Xposition Yposition Zposition Zrotation Yrotation Xrotation
		JOINT Spine1
		{
			OFFSET 0.000000 0.000000 8.844139
			CHANNELS 6 Xposition Yposition Zposition Zrotation Yrotation Xrotation
			JOINT Spine2
			{
				OFFSET 0.000000 0.000000 11.682266
				CHANNELS 6 Xposition Yposition Zposition Zrotation Yrotation Xrotation
				JOINT Spine3
				{
					OFFSET 0.000000 0.000000 11.746696
					CHANNELS 6 Xposition Yposition Zposition Zrotation Yrotation Xrotation
					JOINT Neck
					{
						OFFSET 0.000000 0.000000 17.658264
						CHANNELS 6 Xposition Yposition Zposition Zrotation Yrotation Xrotation
						JOINT Neck1
						{
							OFFSET 0.000000 0.000000 5.101517
							CHANNELS 6 Xposition Yposition Zposition Zrotation Yrotation Xrotation
							JOINT Head
							{
								OFFSET 0.000000 0.000000 5.101517
								CHANNELS 6 Xposition Yposition Zposition Zrotation Yrotation Xrotation
								JOINT HeadEnd
								{
									OFFSET 0.000000 0.000000 11.655090
									CHANNELS 6 Xposition Yposition Zposition Zrotation Yrotation Xrotation
									End Site
									{
										OFFSET 0.000000 0.000000 0.100006
									}
								}
							}
						}
					}
					JOINT RightShoulder
					{
						OFFSET -2.625397 0.000000 11.175217
						CHANNELS 6 Xposition Yposition Zposition Zrotation Yrotation Xrotation
						JOINT RightArm
						{
							OFFSET 0.000000 0.000000 10.434708
							CHANNELS 6 Xposition Yposition Zposition Zrotation Yrotation Xrotation
							JOINT RightForeArm
							{
								OFFSET 0.000000 0.000000 29.628418
								CHANNELS 6 Xposition Yposition Zposition Zrotation Yrotation Xrotation
								JOINT RightHand
								{
									OFFSET 0.000000 0.000000 22.857605
									CHANNELS 6 Xposition Yposition Zposition Zrotation Yrotation Xrotation
									JOINT RightHandThumb1
									{
										OFFSET -2.867310 -2.944275 3.959564
										CHANNELS 6 Xposition Yposition Zposition Zrotation Yrotation Xrotation
										JOINT RightHandThumb2
										{
											OFFSET 0.000000 0.000000 3.350403
											CHANNELS 6 Xposition Yposition Zposition Zrotation Yrotation Xrotation
											JOINT RightHandThumb3
											{
												OFFSET 0.000000 0.000000 3.756516
												CHANNELS 6 Xposition Yposition Zposition Zrotation Yrotation Xrotation
												JOINT RightHandThumb4
												{
													OFFSET 0.000000 0.000000 3.147339
													CHANNELS 6 Xposition Yposition Zposition Zrotation Yrotation Xrotation
													End Site
													{
														OFFSET 0.000000 0.000000 0.100006
													}
												}
											}
										}
									}
									JOINT RightHandIndex1
									{
										OFFSET -0.086761 -2.345276 10.030899
										CHANNELS 6 Xposition Yposition Zposition Zrotation Yrotation Xrotation
										JOINT RightHandIndex2
										{
											OFFSET 0.000000 0.000000 4.061096
											CHANNELS 6 Xposition Yposition Zposition Zrotation Yrotation Xrotation
											JOINT RightHandIndex3
											{
												OFFSET 0.000000 0.000000 3.248871
												CHANNELS 6 Xposition Yposition Zposition Zrotation Yrotation Xrotation
												JOINT RightHandIndex4
												{
													OFFSET 0.000000 0.000000 2.639709
													CHANNELS 6 Xposition Yposition Zposition Zrotation Yrotation Xrotation
													End Site
													{
														OFFSET 0.000000 0.000000 0.100006
													}
												}
											}
										}
									}
									JOINT RightHandMiddle1
									{
										OFFSET 0.104095 -0.006775 9.502945
										CHANNELS 6 Xposition Yposition Zposition Zrotation Yrotation Xrotation
										JOINT RightHandMiddle2
										{
											OFFSET 0.000000 0.000000 4.568726
											CHANNELS 6 Xposition Yposition Zposition Zrotation Yrotation Xrotation
											JOINT RightHandMiddle3
											{
												OFFSET 0.000000 0.000000 3.654984
												CHANNELS 6 Xposition Yposition Zposition Zrotation Yrotation Xrotation
												JOINT RightHandMiddle4
												{
													OFFSET 0.000000 0.000000 2.741241
													CHANNELS 6 Xposition Yposition Zposition Zrotation Yrotation Xrotation
													End Site
													{
														OFFSET 0.000000 0.000000 0.100006
													}
												}
											}
										}
									}
									JOINT RightHandRing1
									{
										OFFSET 0.086761 2.267456 8.921707
										CHANNELS 6 Xposition Yposition Zposition Zrotation Yrotation Xrotation
										JOINT RightHandRing2
										{
											OFFSET 0.000000 0.000000 4.061096
											CHANNELS 6 Xposition Yposition Zposition Zrotation Yrotation Xrotation
											JOINT RightHandRing3
											{
												OFFSET 0.000000 0.000000 3.654984
												CHANNELS 6 Xposition Yposition Zposition Zrotation Yrotation Xrotation
												JOINT RightHandRing4
												{
													OFFSET 0.000000 0.000000 2.741241
													CHANNELS 6 Xposition Yposition Zposition Zrotation Yrotation Xrotation
													End Site
													{
														OFFSET 0.000000 0.000000 0.100006
													}
												}
											}
										}
									}
									JOINT RightHandPinky1
									{
										OFFSET -0.173492 4.467224 7.976990
										CHANNELS 6 Xposition Yposition Zposition Zrotation Yrotation Xrotation
										JOINT RightHandPinky2
										{
											OFFSET 0.000000 0.000000 3.350403
											CHANNELS 6 Xposition Yposition Zposition Zrotation Yrotation Xrotation
											JOINT RightHandPinky3
											{
												OFFSET 0.000000 0.000000 2.842758
												CHANNELS 6 Xposition Yposition Zposition Zrotation Yrotation Xrotation
												JOINT RightHandPinky4
												{
													OFFSET 0.000000 0.000000 2.639709
													CHANNELS 6 Xposition Yposition Zposition Zrotation Yrotation Xrotation
													End Site
													{
														OFFSET 0.000000 0.000000 0.100006
													}
												}
											}
										}
									}
									JOINT RightForeArmEnd
									{
										OFFSET 0.000000 0.000000 0.000000
										CHANNELS 6 Xposition Yposition Zposition Zrotation Yrotation Xrotation
										End Site
										{
											OFFSET 0.000000 0.000000 0.100006
										}
									}
								}
								JOINT RightArmEnd
								{
									OFFSET 0.000000 0.000000 0.000000
									CHANNELS 6 Xposition Yposition Zposition Zrotation Yrotation Xrotation
									End Site
									{
										OFFSET 0.000000 0.000000 0.100006
									}
								}
							}
						}
					}
					JOINT LeftShoulder
					{
						OFFSET 2.625397 0.000000 11.175217
						CHANNELS 6 Xposition Yposition Zposition Zrotation Yrotation Xrotation
						JOINT LeftArm
						{
							OFFSET 0.000000 0.000000 10.813629
							CHANNELS 6 Xposition Yposition Zposition Zrotation Yrotation Xrotation
							JOINT LeftForeArm
							{
								OFFSET 0.000000 0.000000 28.724777
								CHANNELS 6 Xposition Yposition Zposition Zrotation Yrotation Xrotation
								JOINT LeftHand
								{
									OFFSET 0.644379 0.328857 25.716171
									CHANNELS 6 Xposition Yposition Zposition Zrotation Yrotation Xrotation
									JOINT LeftHandThumb1
									{
										OFFSET 2.867310 -2.944275 3.959564
										CHANNELS 6 Xposition Yposition Zposition Zrotation Yrotation Xrotation
										JOINT LeftHandThumb2
										{
											OFFSET 0.000000 0.000000 3.350403
											CHANNELS 6 Xposition Yposition Zposition Zrotation Yrotation Xrotation
											JOINT LeftHandThumb3
											{
												OFFSET 0.000000 0.000000 3.756516
												CHANNELS 6 Xposition Yposition Zposition Zrotation Yrotation Xrotation
												JOINT LeftHandThumb4
												{
													OFFSET 0.000000 0.000000 3.100006
													CHANNELS 6 Xposition Yposition Zposition Zrotation Yrotation Xrotation
													End Site
													{
														OFFSET 0.000000 0.000000 0.100006
													}
												}
											}
										}
									}
									JOINT LeftHandIndex1
									{
										OFFSET 0.086761 -2.345276 10.030899
										CHANNELS 6 Xposition Yposition Zposition Zrotation Yrotation Xrotation
										JOINT LeftHandIndex2
										{
											OFFSET 0.000000 0.000000 4.061096
											CHANNELS 6 Xposition Yposition Zposition Zrotation Yrotation Xrotation
											JOINT LeftHandIndex3
											{
												OFFSET 0.000000 0.000000 3.248871
												CHANNELS 6 Xposition Yposition Zposition Zrotation Yrotation Xrotation
												JOINT LeftHandIndex4
												{
													OFFSET 0.000000 0.000000 2.639709
													CHANNELS 6 Xposition Yposition Zposition Zrotation Yrotation Xrotation
													End Site
													{
														OFFSET 0.000000 0.000000 0.100006
													}
												}
											}
										}
									}
									JOINT LeftHandMiddle1
									{
										OFFSET -0.104095 -0.006775 9.502945
										CHANNELS 6 Xposition Yposition Zposition Zrotation Yrotation Xrotation
										JOINT LeftHandMiddle2
										{
											OFFSET 0.000000 0.000000 4.568726
											CHANNELS 6 Xposition Yposition Zposition Zrotation Yrotation Xrotation
											JOINT LeftHandMiddle3
											{
												OFFSET 0.000000 0.000000 3.654984
												CHANNELS 6 Xposition Yposition Zposition Zrotation Yrotation Xrotation
												JOINT LeftHandMiddle4
												{
													OFFSET 0.000000 0.000000 2.741241
													CHANNELS 6 Xposition Yposition Zposition Zrotation Yrotation Xrotation
													End Site
													{
														OFFSET 0.000000 0.000000 0.100006
													}
												}
											}
										}
									}
									JOINT LeftHandRing1
									{
										OFFSET -0.086761 2.267456 8.921707
										CHANNELS 6 Xposition Yposition Zposition Zrotation Yrotation Xrotation
										JOINT LeftHandRing2
										{
											OFFSET 0.000000 0.000000 4.061096
											CHANNELS 6 Xposition Yposition Zposition Zrotation Yrotation Xrotation
											JOINT LeftHandRing3
											{
												OFFSET 0.000000 0.000000 3.654984
												CHANNELS 6 Xposition Yposition Zposition Zrotation Yrotation Xrotation
												JOINT LeftHandRing4
												{
													OFFSET 0.000000 0.000000 2.741241
													CHANNELS 6 Xposition Yposition Zposition Zrotation Yrotation Xrotation
													End Site
													{
														OFFSET 0.000000 0.000000 0.100006
													}
												}
											}
										}
									}
									JOINT LeftHandPinky1
									{
										OFFSET 0.173492 4.467224 7.976990
										CHANNELS 6 Xposition Yposition Zposition Zrotation Yrotation Xrotation
										JOINT LeftHandPinky2
										{
											OFFSET 0.000000 0.000000 3.350403
											CHANNELS 6 Xposition Yposition Zposition Zrotation Yrotation Xrotation
											JOINT LeftHandPinky3
											{
												OFFSET 0.000000 0.000000 2.842758
												CHANNELS 6 Xposition Yposition Zposition Zrotation Yrotation Xrotation
												JOINT LeftHandPinky4
												{
													OFFSET 0.000000 0.000000 2.639709
													CHANNELS 6 Xposition Yposition Zposition Zrotation Yrotation Xrotation
													End Site
													{
														OFFSET 0.000000 0.000000 0.100006
													}
												}
											}
										}
									}
									JOINT LeftForeArmEnd
									{
										OFFSET 0.000000 0.000000 0.000000
										CHANNELS 6 Xposition Yposition Zposition Zrotation Yrotation Xrotation
										End Site
										{
											OFFSET 0.000000 0.000000 0.100006
										}
									}
								}
								JOINT LeftArmEnd
								{
									OFFSET 0.000000 0.000000 0.000000
									CHANNELS 6 Xposition Yposition Zposition Zrotation Yrotation Xrotation
									End Site
									{
										OFFSET 0.000000 0.000000 0.100006
									}
								}
							}
						}
					}
				}
			}
		}
	}
	JOINT RightUpLeg
	{
		OFFSET -11.289948 0.000000 0.000000
		CHANNELS 6 Xposition Yposition Zposition Zrotation Yrotation Xrotation
		JOINT RightLeg
		{
			OFFSET 0.000000 0.000000 -38.200329
			CHANNELS 6 Xposition Yposition Zposition Zrotation Yrotation Xrotation
			JOINT RightFoot
			{
				OFFSET 0.000000 0.000000 -39.900856
				CHANNELS 6 Xposition Yposition Zposition Zrotation Yrotation Xrotation
				JOINT RightToeBase
				{
					OFFSET 0.000000 -15.261658 0.000001
					CHANNELS 6 Xposition Yposition Zposition Zrotation Yrotation Xrotation
					JOINT RightToeBaseEnd
					{
						OFFSET 0.000000 -7.370728 0.000001
						CHANNELS 6 Xposition Yposition Zposition Zrotation Yrotation Xrotation
						End Site
						{
							OFFSET 0.000000 0.000000 0.100000
						}
					}
				}
				JOINT RightLegEnd
				{
					OFFSET 0.000000 0.000000 0.000000
					CHANNELS 6 Xposition Yposition Zposition Zrotation Yrotation Xrotation
					End Site
					{
						OFFSET 0.000000 0.000000 0.100000
					}
				}
			}
			JOINT RightUpLegEnd
			{
				OFFSET 0.000000 0.000000 0.000000
				CHANNELS 6 Xposition Yposition Zposition Zrotation Yrotation Xrotation
				End Site
				{
					OFFSET 0.000000 0.000000 0.099998
				}
			}
		}
	}
	JOINT LeftUpLeg
	{
		OFFSET 11.315674 0.000000 0.000000
		CHANNELS 6 Xposition Yposition Zposition Zrotation Yrotation Xrotation
		JOINT LeftLeg
		{
			OFFSET 0.000000 0.000000 -38.200329
			CHANNELS 6 Xposition Yposition Zposition Zrotation Yrotation Xrotation
			JOINT LeftFoot
			{
				OFFSET 0.000000 0.000000 -39.900856
				CHANNELS 6 Xposition Yposition Zposition Zrotation Yrotation Xrotation
				JOINT LeftToeBase
				{
					OFFSET 0.000000 -15.261658 0.000001
					CHANNELS 6 Xposition Yposition Zposition Zrotation Yrotation Xrotation
					JOINT LeftToeBaseEnd
					{
						OFFSET 0.000000 -7.539978 0.000001
						CHANNELS 6 Xposition Yposition Zposition Zrotation Yrotation Xrotation
						End Site
						{
							OFFSET 0.000000 0.000000 0.100000
						}
					}
				}
				JOINT LeftLegEnd
				{
					OFFSET 0.000000 0.000000 0.000000
					CHANNELS 6 Xposition Yposition Zposition Zrotation Yrotation Xrotation
					End Site
					{
						OFFSET 0.000000 0.000000 0.100000
					}
				}
			}
			JOINT LeftUpLegEnd
			{
				OFFSET 0.000000 0.000000 0.000000
				CHANNELS 6 Xposition Yposition Zposition Zrotation Yrotation Xrotation
				End Site
				{
					OFFSET 0.000000 0.000000 0.099998
				}
			}
		}
	}
}
MOTION
Frames: 2
Frame Time: 0.016667
3.627533 -16.665894 88.114502 -8.784947 -1.517446 -7.449089 0.000002 2.080048 8.814230 -0.325464 -0.798267 6.231241 0.000015 0.000007 8.844150 -0.314786 -1.268712 2.615941 -0.000002 -0.000023 11.682274 -0.233372 0.288512 5.516673 -0.000027 0.000021 11.746708 -0.459292 1.774962 3.422847 0.000008 -0.000016 17.658289 5.293206 10.063695 0.669653 -0.000006 0.000027 5.101506 2.762233 1.149796 -5.852601 -0.000010 -0.000026 5.101566 0.683772 1.073686 -14.578904 -0.000001 -0.000001 11.655105 0.000000 -0.000000 0.000000 -2.625404 0.000011 11.175207 9.171241 -87.584554 0.316703 -0.000072 -0.000011 10.434715 -51.418125 -45.080574 59.505824 0.000011 -0.000015 29.628468 14.391586 0.309024 36.706338 0.000017 -0.000097 22.857620 2.808214 6.235673 -7.340884 -2.867324 -2.944290 3.959579 32.272838 -25.625212 39.728902 0.000008 0.000015 3.350388 -31.211837 10.747234 -52.776745 0.000000 0.000038 3.756531 -20.711012 10.637283 -36.005523 -0.000011 -0.000005 3.147324 0.000001 -0.000000 0.000000 -0.086754 -2.345298 10.030922 -6.496152 -77.154234 -3.663120 -0.000004 -0.000021 4.061104 5.342540 -54.430170 -11.333761 0.000000 -0.000010 3.248875 5.842535 -54.430163 -11.333737 -0.000013 -0.000003 2.639715 0.000001 -0.000001 0.000001 0.104084 -0.006754 9.502956 -26.402530 -75.762944 21.066207 0.000000 0.000021 4.568745 1.640294 -54.257650 -4.175960 0.000004 0.000070 3.654972 2.140307 -54.257629 -4.175953 0.000008 -0.000019 2.741249 0.000002 -0.000001 0.000001 0.086771 2.267460 8.921730 -72.390552 -74.805222 73.648366 -0.000010 -0.000026 4.061064 -2.445723 -59.679994 6.003150 -0.000017 0.000008 3.654991 -3.445776 -59.679987 6.003207 0.000004 -0.000021 2.741249 0.000001 -0.000001 -0.000000 -0.173502 4.467220 7.977030 -79.783248 -66.815957 89.266789 -0.000023 0.000019 3.350403 -9.247347 -59.736466 19.458777 -0.000004 -0.000088 2.842781 -11.247348 -59.736472 19.458779 -0.000035 0.000008 2.639706 -0.000002 0.000000 -0.000000 0.000006 0.000001 0.000003 0.000000 -0.000003 -0.000003 -0.000012 0.000020 0.000026 -0.000001 -0.000000 -0.000000 2.625381 -0.000003 11.175221 -11.626577 90.687680 -0.284553 0.000008 -0.000006 10.813629 35.597283 52.793660 37.919445 0.000015 -0.000069 28.724741 -22.057428 3.074164 30.534067 0.644368 0.328873 25.716183 -17.803675 -5.896310 -8.681125 2.867315 -2.944229 3.959602 -31.593378 21.810346 44.926607 -0.000015 0.000015 3.350426 22.818807 -10.902806 -39.381494 0.000004 0.000015 3.756500 15.055192 -9.290194 -26.827745 0.000010 0.000005 3.100007 -0.000001 0.000001 -0.000001 0.086761 -2.345276 10.030891 25.867759 49.743858 15.370987 -0.000011 0.000006 4.061104 1.438359 36.255634 5.915990 0.000005 -0.000013 3.248871 1.938358 36.255634 5.915988 -0.000006 -0.000008 2.639721 0.000003 0.000000 -0.000000 -0.104103 -0.006714 9.502945 16.871500 48.300946 11.374418 -0.000032 -0.000001 4.568748 0.157470 34.872996 2.093102 0.000008 -0.000008 3.654985 0.657476 34.872996 2.093107 0.000000 0.000007 2.741248 -0.000002 0.000001 -0.000001 -0.086746 2.267528 8.921696 5.169043 50.764080 7.710390 0.000008 -0.000024 4.061106 0.192301 35.633708 -2.512802 0.000043 0.000008 3.654991 -0.807710 35.633732 -2.512807 0.000005 -0.000002 2.741251 0.000000 -0.000002 0.000000 0.173500 4.467260 7.977010 -8.337621 50.348500 2.030874 0.000004 -0.000004 3.350407 -0.258584 33.698538 -7.448094 0.000004 -0.000021 2.842762 -2.258594 33.698381 -7.448088 0.000032 -0.000000 2.639735 -0.000000 -0.000000 -0.000000 -0.000002 0.000064 0.000018 -0.000001 0.000001 0.000001 0.000000 -0.000010 0.000011 -0.000005 -0.000002 0.000001 -11.289959 0.000003 -0.000013 8.789395 -1.261163 0.509221 -0.000011 0.000062 -38.200325 0.093494 -0.039250 22.776333 0.000018 0.000012 -39.900841 -16.845287 1.848985 11.775723 0.000008 -15.261662 0.000008 0.357458 0.789187 -19.570118 -0.000009 -7.370690 0.000001 0.000004 0.000001 -0.000001 -0.000004 0.000060 0.000001 0.000000 -0.000000 -0.000000 -0.000000 0.000001 0.000002 0.000000 -0.000000 0.000000 11.315679 0.000017 -0.000011 10.129903 -8.211072 -6.007002 -0.000015 0.000078 -38.200298 -0.035599 0.016935 25.450642 0.000035 0.000033 -39.900864 23.038889 1.054472 23.050092 0.000004 -15.261668 -0.000007 0.429319 -2.066699 -21.217556 -0.000017 -7.539921 0.000004 0.000001 -0.000001 0.000001 -0.000004 -0.000024 -0.000001 0.000004 0.000002 -0.000001 -0.000026 -0.000004 0.000001 0.000001 0.000000 0.000000 
3.508270 -16.638611 88.260712 -7.939150 -2.224270 -7.016644 0.000001 2.080049 8.814253 -0.157018 -0.744255 6.085734 0.000010 0.000026 8.844146 -0.185500 -1.171303 2.611801 -0.000003 -0.000025 11.682281 1.008705 0.755317 5.207606 -0.000006 0.000028 11.746691 0.028781 2.281604 3.290791 0.000000 0.000001 17.658279 4.486104 9.085569 0.309076 -0.000010 0.000022 5.101523 1.945250 1.148953 -5.811248 0.000015 -0.000002 5.101527 0.672044 0.822564 -14.464418 -0.000001 0.000001 11.655094 -0.000000 -0.000000 -0.000001 -2.625414 -0.000015 11.175216 9.475322 -86.755396 0.370855 -0.000010 0.000011 10.434704 -51.861251 -43.896284 60.444982 0.000013 0.000000 29.628450 15.074996 0.329729 40.354595 0.000020 -0.000009 22.857597 -2.486299 7.849820 -7.651203 -2.867298 -2.944275 3.959564 32.376517 -26.012253 39.209814 -0.000015 -0.000015 3.350403 -32.043231 10.625969 -54.110507 0.000008 -0.000008 3.756523 -21.288265 10.722369 -36.931656 0.000033 -0.000002 3.147345 0.000001 0.000000 0.000000 -0.086769 -2.345300 10.030880 -7.821382 -78.890399 -2.549154 -0.000031 -0.000002 4.061092 5.771756 -55.629121 -11.857535 -0.000011 -0.000006 3.248886 6.271776 -55.629125 -11.857534 0.000009 -0.000000 2.639711 -0.000001 0.000000 -0.000001 0.104084 -0.006760 9.502941 -30.324711 -77.363463 25.172879 0.000006 -0.000025 4.568724 1.805242 -55.526279 -4.377575 -0.000018 -0.000025 3.654982 2.305267 -55.526317 -4.377597 -0.000007 -0.000010 2.741241 0.000001 -0.000001 0.000002 0.086761 2.267478 8.921698 -79.839919 -75.276348 81.659051 0.000000 -0.000007 4.061092 -2.755659 -61.094225 6.359645 -0.000006 -0.000002 3.655018 -3.755688 -61.094246 6.359680 -0.000001 0.000016 2.741254 -0.000003 0.000001 0.000001 -0.173492 4.467194 7.976984 -84.691443 -67.100031 94.786633 -0.000038 -0.000002 3.350418 -10.256303 -61.102087 20.618859 -0.000019 0.000000 2.842789 -12.256340 -61.102128 20.618910 -0.000012 -0.000003 2.639723 0.000000 0.000000 -0.000003 -0.000002 -0.000004 -0.000011 0.000001 0.000003 0.000002 -0.000002 -0.000009 0.000021 0.000000 -0.000003 -0.000002 2.625430 0.000010 11.175238 -11.035652 90.288762 -0.470546 0.000034 0.000004 10.813644 31.883863 53.505110 32.695009 -0.000063 -0.000008 28.724667 -20.796253 2.177135 33.158287 0.644343 0.328846 25.716164 -19.593122 -5.835392 -8.411745 2.867317 -2.944290 3.959625 -31.576146 21.623035 45.187435 -0.000015 0.000015 3.350433 22.400536 -10.859970 -38.712747 -0.000011 0.000015 3.756500 14.779496 -9.199709 -26.373864 0.000018 0.000004 3.100003 -0.000000 0.000001 -0.000001 0.086761 -2.345272 10.030876 25.489387 49.259290 14.781870 0.000029 -0.000071 4.061100 1.387368 35.854859 5.829352 -0.000008 -0.000001 3.248863 1.887362 35.854853 5.829352 0.000003 -0.000004 2.639749 -0.000000 0.000001 -0.000001 -0.104080 -0.006773 9.502937 16.651818 47.885408 10.906269 0.000018 -0.000030 4.568714 0.143316 34.552865 2.068263 0.000000 -0.000021 3.654966 0.643355 34.552882 2.068296 0.000010 0.000002 2.741260 0.000000 0.000000 0.000000 -0.086760 2.267441 8.921696 5.119658 50.585829 7.395327 0.000008 0.000015 4.061092 0.198258 35.522970 -2.502563 -0.000010 0.000035 3.654980 -0.801747 35.522940 -2.502542 -0.000000 0.000007 2.741240 0.000000 0.000000 -0.000000 0.173523 4.467207 7.976983 -8.340904 50.410515 1.707421 0.000004 -0.000048 3.350414 -0.272807 33.788755 -7.473710 0.000025 0.000018 2.842773 -2.272807 33.788775 -7.473708 -0.000006 -0.000001 2.639737 -0.000000 -0.000000 -0.000000 0.000015 0.000013 0.000012 -0.000002 0.000003 -0.000005 -0.000015 -0.000006 0.000003 0.000001 -0.000002 0.000005 -11.289957 -0.000021 0.000008 9.183523 -0.730271 0.142775 -0.000005 0.000040 -38.200325 0.128648 -0.054531 22.969426 0.000004 0.000064 -39.900845 -18.007717 1.677245 11.848443 0.000005 -15.261671 -0.000009 0.301071 0.874529 -19.576804 0.000002 -7.370673 0.000000 0.000001 0.000000 0.000000 -0.000014 0.000061 -0.000001 -0.000000 0.000000 0.000001 0.000002 0.000001 0.000001 0.000000 -0.000000 0.000002 11.315682 0.000083 0.000004 11.389664 -6.906545 -7.193355 -0.000000 0.000043 -38.200268 0.113151 -0.055761 26.233283 0.000040 0.000013 -39.900864 20.701825 1.759158 22.337142 0.000001 -15.261644 -0.000007 0.158335 -1.839590 -21.828665 -0.000015 -7.539990 0.000001 0.000002 0.000000 0.000001 0.000008 -0.000080 -0.000005 0.000003 0.000000 0.000001 -0.000027 0.000061 -0.000003 -0.000000 -0.000000 -0.000001 
